<svg id="Camada_1" data-name="Camada 1" xmlns="http://www.w3.org/2000/svg" viewBox="0 0 18 18"><defs><style>.cls-1{fill:#4349b5;fill-rule:evenodd;}</style></defs><path class="cls-1" d="M9,3.34a13.24,13.24,0,0,1,5.94,0A7.67,7.67,0,0,1,20.66,9a13.24,13.24,0,0,1,0,5.94A7.67,7.67,0,0,1,15,20.66a13.24,13.24,0,0,1-5.94,0A7.67,7.67,0,0,1,3.34,15,13.24,13.24,0,0,1,3.34,9,7.67,7.67,0,0,1,9,3.34Zm3.54,5.79a.57.57,0,1,0-1.14,0v4.78a.57.57,0,1,0,1.14,0ZM9.7,11a.57.57,0,0,0-.57-.57.58.58,0,0,0-.58.57v3.83a.58.58,0,0,0,.58.58.57.57,0,0,0,.57-.58Zm5.75,1a.57.57,0,0,0-.58-.57.56.56,0,0,0-.57.57v2.87a.57.57,0,0,0,.57.58.58.58,0,0,0,.58-.58Z" transform="translate(-3 -3)"/></svg>